<svg width="128" height="129" viewBox="0 0 128 129" fill="none" xmlns="http://www.w3.org/2000/svg">
<g clip-path="url(#clip0_33_3535)">
<mask id="mask0_33_3535" style="mask-type:luminance" maskUnits="userSpaceOnUse" x="0" y="0" width="128" height="129">
<path d="M96 0.5H32C14.3269 0.5 0 14.8269 0 32.5V96.5C0 114.173 14.3269 128.5 32 128.5H96C113.673 128.5 128 114.173 128 96.5V32.5C128 14.8269 113.673 0.5 96 0.5Z" fill="white"/>
</mask>
<g mask="url(#mask0_33_3535)">
<path d="M96 0.5H32C14.3269 0.5 0 14.8269 0 32.5V96.5C0 114.173 14.3269 128.5 32 128.5H96C113.673 128.5 128 114.173 128 96.5V32.5C128 14.8269 113.673 0.5 96 0.5Z" fill="white"/>
<path d="M13.3598 82.4999V80.4839L16.1438 79.716C17.3598 79.396 18.1918 78.7879 18.6398 77.8919C19.1518 76.9959 19.4078 75.9079 19.4078 74.6279V28.1639C18.8318 26.9479 18.3198 26.0519 17.8718 25.4759C17.4878 24.8359 17.0718 24.2919 16.6238 23.8439C16.1758 23.3959 15.5678 22.8839 14.7998 22.3079L13.0718 21.0599V19.0439H29.4878L61.3598 62.6279V27.0119C61.3598 25.7319 61.1358 24.6119 60.6878 23.6519C60.3038 22.6919 59.4718 22.0519 58.1918 21.7319L55.3118 21.0599V19.0439H69.6158V21.0599L67.2158 21.7319C65.9998 22.1159 65.2318 22.7879 64.9118 23.7479C64.6558 24.6439 64.5278 25.7319 64.5278 27.0119V82.8839H59.1518L22.5758 32.5799V74.5319C22.5758 75.8759 22.7678 76.9959 23.1518 77.8919C23.5358 78.7879 24.3358 79.396 25.5518 79.716L28.1438 80.4839V82.4999H13.3598Z" fill="black"/>
<path d="M89.0748 114.228C82.5468 114.228 76.7868 112.884 71.7948 110.196C66.8668 107.444 62.9948 103.572 60.1788 98.58C57.4268 93.524 56.0508 87.572 56.0508 80.724C56.0508 74.068 57.4268 68.244 60.1788 63.252C62.9308 58.26 66.8988 54.388 72.0828 51.636C77.3308 48.82 83.6668 47.412 91.0908 47.412C94.4828 47.412 97.6188 47.796 100.499 48.564C103.443 49.332 106.227 50.452 108.851 51.924L109.235 65.364H108.275L102.899 55.38C102.067 53.78 101.299 52.628 100.595 51.924C99.8908 51.22 98.9948 50.676 97.9068 50.292C96.8828 49.972 95.9228 49.748 95.0268 49.62C94.1948 49.428 93.0748 49.332 91.6668 49.332C87.6988 49.332 84.1788 50.388 81.1068 52.5C78.0988 54.612 75.7628 57.972 74.0988 62.58C72.4348 67.188 71.6028 73.236 71.6028 80.724C71.6028 88.148 72.3708 94.196 73.9068 98.868C75.5068 103.54 77.7468 106.964 80.6268 109.14C83.5068 111.252 86.8348 112.308 90.6108 112.308C91.1868 112.308 91.7308 112.276 92.2428 112.212C92.8188 112.084 93.3628 111.956 93.8748 111.828C95.0908 111.636 95.8908 111.124 96.2748 110.292C96.6588 109.46 96.8508 108.468 96.8508 107.316V88.308C96.8508 85.812 95.5708 84.276 93.0108 83.7L88.5948 82.548V81.588H115.667V82.548L114.323 82.932C111.891 83.7 110.675 85.3 110.675 87.732V108.564C107.347 110.42 103.955 111.828 100.499 112.788C97.1068 113.748 93.2988 114.228 89.0748 114.228Z" fill="black"/>
</g>
</g>
<defs>
<clipPath id="clip0_33_3535">
<rect width="128" height="128" fill="white" transform="translate(0 0.5)"/>
</clipPath>
</defs>
</svg>
