<svg width="276" height="39" viewBox="0 0 276 39" fill="none" xmlns="http://www.w3.org/2000/svg">
<path d="M28.9838 2.59091V37.5H23.3588L6.90994 13.7216H6.62016V37.5H0.296301V2.59091H5.95539L22.3872 26.3864H22.694V2.59091H28.9838ZM46.5422 38.0114C43.9853 38.0114 41.7694 37.4489 39.8944 36.3239C38.0194 35.1989 36.5649 33.625 35.5308 31.6023C34.5081 29.5795 33.9967 27.2159 33.9967 24.5114C33.9967 21.8068 34.5081 19.4375 35.5308 17.4034C36.5649 15.3693 38.0194 13.7898 39.8944 12.6648C41.7694 11.5398 43.9853 10.9773 46.5422 10.9773C49.099 10.9773 51.3149 11.5398 53.1899 12.6648C55.0649 13.7898 56.5137 15.3693 57.5365 17.4034C58.5706 19.4375 59.0876 21.8068 59.0876 24.5114C59.0876 27.2159 58.5706 29.5795 57.5365 31.6023C56.5137 33.625 55.0649 35.1989 53.1899 36.3239C51.3149 37.4489 49.099 38.0114 46.5422 38.0114ZM46.5762 33.0682C47.9626 33.0682 49.1217 32.6875 50.0535 31.9261C50.9853 31.1534 51.6785 30.1193 52.1331 28.8239C52.599 27.5284 52.8319 26.0852 52.8319 24.4943C52.8319 22.892 52.599 21.4432 52.1331 20.1477C51.6785 18.8409 50.9853 17.8011 50.0535 17.0284C49.1217 16.2557 47.9626 15.8693 46.5762 15.8693C45.1558 15.8693 43.974 16.2557 43.0308 17.0284C42.099 17.8011 41.4001 18.8409 40.9342 20.1477C40.4797 21.4432 40.2524 22.892 40.2524 24.4943C40.2524 26.0852 40.4797 27.5284 40.9342 28.8239C41.4001 30.1193 42.099 31.1534 43.0308 31.9261C43.974 32.6875 45.1558 33.0682 46.5762 33.0682ZM76.9187 11.3182V16.0909H61.8676V11.3182H76.9187ZM65.5835 5.04545H71.7539V29.625C71.7539 30.4545 71.8789 31.0909 72.1289 31.5341C72.3903 31.9659 72.7312 32.2614 73.1516 32.4205C73.5721 32.5795 74.038 32.6591 74.5494 32.6591C74.9357 32.6591 75.288 32.6307 75.6062 32.5739C75.9357 32.517 76.1857 32.4659 76.3562 32.4205L77.396 37.2443C77.0664 37.358 76.5948 37.483 75.9812 37.6193C75.3789 37.7557 74.6403 37.8352 73.7653 37.858C72.2198 37.9034 70.8278 37.6705 69.5891 37.1591C68.3505 36.6364 67.3676 35.8295 66.6403 34.7386C65.9244 33.6477 65.5721 32.2841 65.5835 30.6477V5.04545ZM92.9089 38.0114C90.2839 38.0114 88.0168 37.4659 86.1077 36.375C84.21 35.2727 82.7498 33.7159 81.727 31.7045C80.7043 29.6818 80.1929 27.3011 80.1929 24.5625C80.1929 21.8693 80.7043 19.5057 81.727 17.4716C82.7611 15.4261 84.2043 13.8352 86.0566 12.6989C87.9089 11.5511 90.085 10.9773 92.585 10.9773C94.1986 10.9773 95.7214 11.2386 97.1532 11.7614C98.5964 12.2727 99.8691 13.0682 100.971 14.1477C102.085 15.2273 102.96 16.6023 103.596 18.2727C104.233 19.9318 104.551 21.9091 104.551 24.2045V26.0966H83.0907V21.9375H98.6361C98.6248 20.7557 98.3691 19.7045 97.8691 18.7841C97.3691 17.8523 96.6702 17.1193 95.7725 16.5852C94.8861 16.0511 93.852 15.7841 92.6702 15.7841C91.4089 15.7841 90.3009 16.0909 89.3464 16.7045C88.3918 17.3068 87.6475 18.1023 87.1134 19.0909C86.5907 20.0682 86.3236 21.142 86.3123 22.3125V25.9432C86.3123 27.4659 86.5907 28.7727 87.1475 29.8636C87.7043 30.9432 88.4827 31.7727 89.4827 32.3523C90.4827 32.9205 91.6532 33.2045 92.9941 33.2045C93.8918 33.2045 94.7043 33.0795 95.4316 32.8295C96.1589 32.5682 96.7895 32.1875 97.3236 31.6875C97.8577 31.1875 98.2611 30.5682 98.5339 29.8295L104.295 30.4773C103.932 32 103.238 33.3295 102.216 34.4659C101.204 35.5909 99.9089 36.4659 98.3293 37.0909C96.7498 37.7045 94.9429 38.0114 92.9089 38.0114ZM144.376 13.7386C144.092 12.8182 143.7 11.9943 143.2 11.267C142.712 10.5284 142.121 9.89773 141.428 9.375C140.746 8.85227 139.962 8.46023 139.075 8.19886C138.189 7.92614 137.223 7.78977 136.178 7.78977C134.303 7.78977 132.632 8.26136 131.166 9.20455C129.7 10.1477 128.547 11.5341 127.706 13.3636C126.876 15.1818 126.462 17.3977 126.462 20.0114C126.462 22.6477 126.876 24.8807 127.706 26.7102C128.536 28.5398 129.689 29.9318 131.166 30.8864C132.643 31.8295 134.359 32.3011 136.314 32.3011C138.087 32.3011 139.621 31.9602 140.916 31.2784C142.223 30.5966 143.229 29.6307 143.933 28.3807C144.638 27.1193 144.99 25.642 144.99 23.9489L146.422 24.1705H136.945V19.2273H151.109V23.4205C151.109 26.4091 150.473 28.9943 149.2 31.1761C147.928 33.358 146.178 35.0398 143.95 36.2216C141.723 37.392 139.166 37.9773 136.28 37.9773C133.064 37.9773 130.24 37.2557 127.808 35.8125C125.388 34.358 123.496 32.2955 122.132 29.625C120.78 26.9432 120.104 23.7614 120.104 20.0795C120.104 17.2614 120.501 14.7443 121.297 12.5284C122.104 10.3125 123.229 8.43182 124.672 6.88636C126.115 5.32954 127.808 4.14773 129.751 3.34091C131.695 2.52273 133.808 2.11364 136.092 2.11364C138.024 2.11364 139.825 2.39773 141.496 2.96591C143.166 3.52273 144.649 4.31818 145.945 5.35227C147.251 6.38636 148.325 7.61364 149.166 9.03409C150.007 10.4545 150.558 12.0227 150.82 13.7386H144.376ZM168.063 38.0114C165.438 38.0114 163.171 37.4659 161.261 36.375C159.364 35.2727 157.904 33.7159 156.881 31.7045C155.858 29.6818 155.347 27.3011 155.347 24.5625C155.347 21.8693 155.858 19.5057 156.881 17.4716C157.915 15.4261 159.358 13.8352 161.21 12.6989C163.063 11.5511 165.239 10.9773 167.739 10.9773C169.352 10.9773 170.875 11.2386 172.307 11.7614C173.75 12.2727 175.023 13.0682 176.125 14.1477C177.239 15.2273 178.114 16.6023 178.75 18.2727C179.386 19.9318 179.705 21.9091 179.705 24.2045V26.0966H158.244V21.9375H173.79C173.779 20.7557 173.523 19.7045 173.023 18.7841C172.523 17.8523 171.824 17.1193 170.926 16.5852C170.04 16.0511 169.006 15.7841 167.824 15.7841C166.563 15.7841 165.455 16.0909 164.5 16.7045C163.546 17.3068 162.801 18.1023 162.267 19.0909C161.744 20.0682 161.477 21.142 161.466 22.3125V25.9432C161.466 27.4659 161.744 28.7727 162.301 29.8636C162.858 30.9432 163.636 31.7727 164.636 32.3523C165.636 32.9205 166.807 33.2045 168.148 33.2045C169.046 33.2045 169.858 33.0795 170.585 32.8295C171.313 32.5682 171.943 32.1875 172.477 31.6875C173.011 31.1875 173.415 30.5682 173.688 29.8295L179.449 30.4773C179.085 32 178.392 33.3295 177.369 34.4659C176.358 35.5909 175.063 36.4659 173.483 37.0909C171.904 37.7045 170.097 38.0114 168.063 38.0114ZM190.615 22.1591V37.5H184.445V11.3182H190.343V15.767H190.649C191.252 14.3011 192.212 13.1364 193.53 12.2727C194.86 11.4091 196.502 10.9773 198.456 10.9773C200.263 10.9773 201.837 11.3636 203.178 12.1364C204.53 12.9091 205.576 14.0284 206.314 15.4943C207.064 16.9602 207.433 18.7386 207.422 20.8295V37.5H201.252V21.7841C201.252 20.0341 200.797 18.6648 199.888 17.6761C198.99 16.6875 197.746 16.1932 196.155 16.1932C195.076 16.1932 194.115 16.4318 193.274 16.9091C192.445 17.375 191.791 18.0511 191.314 18.9375C190.848 19.8239 190.615 20.8977 190.615 22.1591ZM213.215 37.5V11.3182H219.385V37.5H213.215ZM216.317 7.60227C215.34 7.60227 214.499 7.27841 213.794 6.63068C213.09 5.97159 212.738 5.18182 212.738 4.26136C212.738 3.32954 213.09 2.53977 213.794 1.89204C214.499 1.23295 215.34 0.903408 216.317 0.903408C217.306 0.903408 218.147 1.23295 218.84 1.89204C219.544 2.53977 219.897 3.32954 219.897 4.26136C219.897 5.18182 219.544 5.97159 218.84 6.63068C218.147 7.27841 217.306 7.60227 216.317 7.60227ZM241.938 26.4886V11.3182H248.108V37.5H242.125V32.8466H241.853C241.262 34.3125 240.29 35.5114 238.938 36.4432C237.597 37.375 235.944 37.8409 233.978 37.8409C232.262 37.8409 230.745 37.4602 229.427 36.6989C228.12 35.9261 227.097 34.8068 226.358 33.3409C225.62 31.8636 225.25 30.0795 225.25 27.9886V11.3182H231.421V27.0341C231.421 28.6932 231.875 30.0114 232.785 30.9886C233.694 31.9659 234.887 32.4545 236.364 32.4545C237.273 32.4545 238.154 32.233 239.006 31.7898C239.858 31.3466 240.557 30.6875 241.103 29.8125C241.66 28.9261 241.938 27.8182 241.938 26.4886ZM274.667 18.2386L269.042 18.8523C268.883 18.2841 268.604 17.75 268.207 17.25C267.82 16.75 267.297 16.3466 266.638 16.0398C265.979 15.733 265.172 15.5795 264.218 15.5795C262.934 15.5795 261.854 15.858 260.979 16.4148C260.116 16.9716 259.689 17.6932 259.701 18.5795C259.689 19.3409 259.968 19.9602 260.536 20.4375C261.116 20.9148 262.07 21.3068 263.4 21.6136L267.866 22.5682C270.343 23.1023 272.184 23.9489 273.388 25.108C274.604 26.267 275.218 27.7841 275.229 29.6591C275.218 31.3068 274.735 32.7614 273.78 34.0227C272.837 35.2727 271.525 36.25 269.843 36.9545C268.161 37.6591 266.229 38.0114 264.047 38.0114C260.843 38.0114 258.263 37.3409 256.309 36C254.354 34.6477 253.189 32.767 252.814 30.358L258.832 29.7784C259.104 30.9602 259.684 31.8523 260.57 32.4545C261.457 33.0568 262.61 33.358 264.03 33.358C265.496 33.358 266.672 33.0568 267.559 32.4545C268.457 31.8523 268.905 31.108 268.905 30.2216C268.905 29.4716 268.616 28.8523 268.036 28.3636C267.468 27.875 266.582 27.5 265.377 27.2386L260.911 26.3011C258.4 25.7784 256.542 24.8977 255.337 23.6591C254.133 22.4091 253.536 20.8295 253.547 18.9205C253.536 17.3068 253.974 15.9091 254.86 14.7273C255.758 13.5341 257.002 12.6136 258.593 11.9659C260.195 11.3068 262.042 10.9773 264.133 10.9773C267.201 10.9773 269.616 11.6307 271.377 12.9375C273.15 14.2443 274.246 16.0114 274.667 18.2386Z" fill="white"/>
</svg>
